<mxfile host="app.diagrams.net" modified="2022-07-30T12:19:20.642Z" agent="5.0 (Windows NT 10.0; Win64; x64) AppleWebKit/537.36 (KHTML, like Gecko) Chrome/103.0.0.0 Safari/537.36" etag="_41RtzyeNGJr_uHTi12R" version="20.2.2" type="github">
  <diagram id="7fqQ4Oidpcdu9EUxIY-B" name="Page-1">
    <mxGraphModel dx="1718" dy="2028" grid="1" gridSize="10" guides="1" tooltips="1" connect="1" arrows="1" fold="1" page="1" pageScale="1" pageWidth="850" pageHeight="1100" math="0" shadow="0">
      <root>
        <mxCell id="0" />
        <mxCell id="1" parent="0" />
        <mxCell id="CUKz_DlvdPa7j1NfzZHn-3" value="" style="edgeStyle=orthogonalEdgeStyle;rounded=0;orthogonalLoop=1;jettySize=auto;html=1;" edge="1" parent="1" source="CUKz_DlvdPa7j1NfzZHn-1" target="CUKz_DlvdPa7j1NfzZHn-2">
          <mxGeometry relative="1" as="geometry" />
        </mxCell>
        <mxCell id="CUKz_DlvdPa7j1NfzZHn-7" value="" style="edgeStyle=orthogonalEdgeStyle;rounded=0;orthogonalLoop=1;jettySize=auto;html=1;" edge="1" parent="1" source="CUKz_DlvdPa7j1NfzZHn-1" target="CUKz_DlvdPa7j1NfzZHn-6">
          <mxGeometry relative="1" as="geometry" />
        </mxCell>
        <mxCell id="CUKz_DlvdPa7j1NfzZHn-9" value="" style="edgeStyle=orthogonalEdgeStyle;rounded=0;orthogonalLoop=1;jettySize=auto;html=1;" edge="1" parent="1" source="CUKz_DlvdPa7j1NfzZHn-1" target="CUKz_DlvdPa7j1NfzZHn-8">
          <mxGeometry relative="1" as="geometry" />
        </mxCell>
        <mxCell id="CUKz_DlvdPa7j1NfzZHn-1" value="LockersSim&lt;br&gt;API Layer" style="rounded=0;whiteSpace=wrap;html=1;fillColor=#dae8fc;strokeColor=#6c8ebf;" vertex="1" parent="1">
          <mxGeometry x="50" y="300" width="120" height="170" as="geometry" />
        </mxCell>
        <mxCell id="CUKz_DlvdPa7j1NfzZHn-5" value="" style="edgeStyle=orthogonalEdgeStyle;rounded=0;orthogonalLoop=1;jettySize=auto;html=1;" edge="1" parent="1" source="CUKz_DlvdPa7j1NfzZHn-2" target="CUKz_DlvdPa7j1NfzZHn-4">
          <mxGeometry relative="1" as="geometry" />
        </mxCell>
        <mxCell id="CUKz_DlvdPa7j1NfzZHn-2" value="WebSocket Server" style="whiteSpace=wrap;html=1;fillColor=#dae8fc;strokeColor=#6c8ebf;rounded=0;" vertex="1" parent="1">
          <mxGeometry x="50" y="530" width="120" height="60" as="geometry" />
        </mxCell>
        <mxCell id="CUKz_DlvdPa7j1NfzZHn-4" value="WebSocket Client" style="whiteSpace=wrap;html=1;fillColor=#dae8fc;strokeColor=#6c8ebf;rounded=0;" vertex="1" parent="1">
          <mxGeometry x="50" y="660" width="120" height="60" as="geometry" />
        </mxCell>
        <mxCell id="CUKz_DlvdPa7j1NfzZHn-6" value="Lockers App" style="whiteSpace=wrap;html=1;fillColor=#dae8fc;strokeColor=#6c8ebf;rounded=0;" vertex="1" parent="1">
          <mxGeometry x="50" y="180" width="120" height="60" as="geometry" />
        </mxCell>
        <mxCell id="CUKz_DlvdPa7j1NfzZHn-11" value="" style="edgeStyle=orthogonalEdgeStyle;rounded=0;orthogonalLoop=1;jettySize=auto;html=1;" edge="1" parent="1" source="CUKz_DlvdPa7j1NfzZHn-8" target="CUKz_DlvdPa7j1NfzZHn-10">
          <mxGeometry relative="1" as="geometry" />
        </mxCell>
        <mxCell id="CUKz_DlvdPa7j1NfzZHn-8" value="SocketConnect (ws://1.2.3.4:9009?tsn=9090)&lt;br&gt;" style="shape=process;whiteSpace=wrap;html=1;backgroundOutline=1;fillColor=#dae8fc;strokeColor=#6c8ebf;rounded=0;" vertex="1" parent="1">
          <mxGeometry x="250" y="220" width="240" height="70" as="geometry" />
        </mxCell>
        <mxCell id="CUKz_DlvdPa7j1NfzZHn-10" value="&lt;div&gt;{&lt;/div&gt;&lt;div&gt;&amp;nbsp; &quot;success&quot;:true,&lt;/div&gt;&lt;div&gt;&amp;nbsp; &quot;statusCode&quot;:200,&lt;/div&gt;&lt;div&gt;&amp;nbsp; &quot;transactionId&quot;:&quot;36-characters&quot;,&lt;/div&gt;&lt;div&gt;&amp;nbsp; &quot;timestamp&quot;:&quot;2022-07-30T10:30:20Z&quot;,&lt;/div&gt;&lt;div&gt;&amp;nbsp; &quot;deviceInfo&quot;:{&lt;/div&gt;&lt;div&gt;&amp;nbsp; &amp;nbsp; &amp;nbsp; &quot;ipAddress&quot;:[&quot;192.168.0.70&quot;, &quot;192.168.0.71&quot;,&quot;192.168.0.69&quot;],&lt;/div&gt;&lt;div&gt;&amp;nbsp; &amp;nbsp; &amp;nbsp; &quot;type&quot;:&quot;Linux&quot;,&lt;/div&gt;&lt;div&gt;&amp;nbsp; &amp;nbsp; &amp;nbsp; &quot;platform&quot;:&quot;linux&quot;,&lt;/div&gt;&lt;div&gt;&amp;nbsp; &amp;nbsp; &amp;nbsp; &quot;hostname&quot;:&quot;myhub&quot;,&lt;/div&gt;&lt;div&gt;&amp;nbsp; &amp;nbsp; &amp;nbsp; &quot;serialNumber&quot;:&quot;101101001010101010&quot;&lt;/div&gt;&lt;div&gt;&amp;nbsp; &amp;nbsp; },&lt;/div&gt;&lt;div&gt;&amp;nbsp; &amp;nbsp; &quot;clientId&quot;:&quot;900&quot;,&lt;/div&gt;&lt;div&gt;&amp;nbsp; &amp;nbsp; &quot;action&quot;:&quot;webSocketConnect&quot;,&lt;/div&gt;&lt;div&gt;&amp;nbsp; &amp;nbsp; &quot;errorMessage&quot;:&quot;&quot;,&lt;/div&gt;&lt;div&gt;&amp;nbsp; &amp;nbsp; &quot;lockerBanks&quot;:{&lt;/div&gt;&lt;div&gt;&amp;nbsp; &amp;nbsp; &amp;nbsp; &amp;nbsp; &quot;location&quot;:&quot;unknown&quot;,&lt;/div&gt;&lt;div&gt;&amp;nbsp; &amp;nbsp; &amp;nbsp; &amp;nbsp; &quot;bankName&quot;:&quot;unknown&quot;,&lt;/div&gt;&lt;div&gt;&amp;nbsp; &amp;nbsp; &amp;nbsp; &amp;nbsp; &quot;clientId&quot;:&quot;900&quot;,&lt;/div&gt;&lt;div&gt;&amp;nbsp; &amp;nbsp; &amp;nbsp; &amp;nbsp; &quot;peripheralid&quot;:&quot;0&quot;,&lt;/div&gt;&lt;div&gt;&amp;nbsp; &amp;nbsp; &amp;nbsp; &amp;nbsp; &quot;action&quot;:&quot;webSocketConnect&quot;,&lt;/div&gt;&lt;div&gt;&amp;nbsp; &amp;nbsp; &amp;nbsp; &amp;nbsp; &quot;wago&quot;:[{&lt;/div&gt;&lt;div&gt;&amp;nbsp; &amp;nbsp; &amp;nbsp; &amp;nbsp; &amp;nbsp; &amp;nbsp; &quot;serialNumber&quot;:&quot;0030abcdefg8484848918&quot;,&lt;/div&gt;&lt;div&gt;&amp;nbsp; &amp;nbsp; &amp;nbsp; &amp;nbsp; &amp;nbsp; &amp;nbsp; &quot;numberOfCards&quot;:1,&lt;/div&gt;&lt;div&gt;&amp;nbsp; &amp;nbsp; &amp;nbsp; &amp;nbsp; &amp;nbsp; &amp;nbsp; &quot;portsPerCard&quot;:4&lt;/div&gt;&lt;div&gt;&amp;nbsp; &amp;nbsp; &amp;nbsp; &amp;nbsp; &amp;nbsp;}],&lt;/div&gt;&lt;div&gt;&amp;nbsp; &amp;nbsp; &amp;nbsp; &amp;nbsp;&amp;nbsp;&lt;/div&gt;&lt;div&gt;&amp;nbsp; &amp;nbsp; &amp;nbsp;&quot;UserDevices&quot;:[{&lt;/div&gt;&lt;div&gt;&amp;nbsp; &amp;nbsp; &amp;nbsp; &amp;nbsp; &amp;nbsp; &amp;nbsp; &quot;serialNumber&quot;:&quot;7839-73487934897A8&quot;,&lt;/div&gt;&lt;div&gt;&amp;nbsp; &amp;nbsp; &amp;nbsp; &amp;nbsp; &amp;nbsp; &amp;nbsp; &quot;column&quot;:0,&lt;/div&gt;&lt;div&gt;&amp;nbsp; &amp;nbsp; &amp;nbsp; &amp;nbsp; &amp;nbsp; &amp;nbsp; &quot;row&quot;:0,&lt;/div&gt;&lt;div&gt;&amp;nbsp; &amp;nbsp; &amp;nbsp; &amp;nbsp; &amp;nbsp; &amp;nbsp; &quot;type&quot;:&quot;scanner&quot;,&lt;/div&gt;&lt;div&gt;&amp;nbsp; &amp;nbsp; &amp;nbsp; &amp;nbsp; &amp;nbsp; &amp;nbsp; &quot;modelName&quot;:&quot;1210&quot;,&lt;/div&gt;&lt;div&gt;&amp;nbsp; &amp;nbsp; &amp;nbsp; &amp;nbsp; &amp;nbsp; &amp;nbsp; &quot;size&quot;:&quot;&quot;&lt;/div&gt;&lt;div&gt;&amp;nbsp; &amp;nbsp; &amp;nbsp; &amp;nbsp; }]&lt;/div&gt;&lt;div&gt;&amp;nbsp; &amp;nbsp; },&lt;/div&gt;&lt;div&gt;&amp;nbsp; &amp;nbsp; &quot;printers&quot;:[]&lt;/div&gt;&lt;div&gt;&amp;nbsp; &amp;nbsp; }&lt;/div&gt;" style="whiteSpace=wrap;html=1;fillColor=#dae8fc;strokeColor=#6c8ebf;rounded=0;" vertex="1" parent="1">
          <mxGeometry x="600" y="-45" width="290" height="595" as="geometry" />
        </mxCell>
      </root>
    </mxGraphModel>
  </diagram>
</mxfile>
